<svg class="svg-icon" style="width: 1em; height: 1em;vertical-align: middle;fill: currentColor;overflow: hidden;" viewBox="0 0 1024 1024" version="1.1" xmlns="http://www.w3.org/2000/svg"><path d="M124 256.992q0-26.016 18.496-44.512t44.512-18.496 44.512 18.496 18.496 44.512-18.496 44.512T187.008 320t-44.512-18.496-18.496-44.512z m732 29.024H357.984q-15.008 0-25.504-10.496t-10.496-25.504q0-15.008 10.496-25.504t25.504-10.496H856q15.008 0 25.504 10.496t10.496 25.504q0 15.008-10.496 25.504t-25.504 10.496zM124 512q0-26.016 18.496-44.512t44.512-18.496 44.512 18.496T250.016 512t-18.496 44.512-44.512 18.496-44.512-18.496T124 512z m732 28.992H357.984q-15.008 0-25.504-10.496t-10.496-25.504q0-15.008 10.496-25.504t25.504-10.496H856q15.008 0 25.504 10.496t10.496 25.504q0 15.008-10.496 25.504t-25.504 10.496zM124 767.008q0-26.016 18.496-44.512T187.008 704t44.512 18.496 18.496 44.512-18.496 44.512-44.512 18.496-44.512-18.496-18.496-44.512z m732 28.992H357.984q-15.008 0-25.504-10.496t-10.496-25.504q0-15.008 10.496-25.504t25.504-10.496H856q15.008 0 25.504 10.496t10.496 25.504q0 15.008-10.496 25.504t-25.504 10.496z"  /></svg>